<svg width="1440" height="405" viewBox="0 0 1440 405" fill="none" xmlns="http://www.w3.org/2000/svg">
<g id="cloud-dark 1" clip-path="url(#clip0)">
<g id="Group">
<g id="Group_2">
<path id="Vector" d="M524.694 262.76C525.232 261.06 525.5 259.27 525.5 257.48C525.5 247.813 517.623 239.937 507.957 239.937C501.245 239.937 495.427 243.696 492.473 249.245C491.399 248.887 490.146 248.708 488.983 248.708C482.539 248.708 477.347 253.899 477.347 260.343C477.347 261.149 477.437 261.955 477.616 262.671C471.708 263.566 467.144 268.757 467.144 274.932C467.144 281.824 472.693 287.373 479.585 287.373H522.636C529.527 287.373 535.076 281.824 535.076 274.932C534.987 268.846 530.512 263.745 524.694 262.76Z" fill="white"/>
</g>
<g id="Group_3">
<path id="Vector_2" d="M405.355 93.9474C405.885 92.2707 406.149 90.5056 406.149 88.7405C406.149 79.2084 398.382 71.442 388.851 71.442C382.232 71.442 376.495 75.149 373.582 80.6205C372.523 80.2674 371.287 80.0906 370.141 80.0906C363.786 80.0906 358.667 85.2097 358.667 91.564C358.667 92.3584 358.756 93.1529 358.932 93.8589C353.107 94.7418 348.606 99.8602 348.606 105.95C348.606 112.746 354.078 118.218 360.874 118.218H403.325C410.12 118.218 415.592 112.746 415.592 105.95C415.504 99.9487 411.091 94.918 405.355 93.9474Z" fill="white"/>
</g>
<g id="Group_4">
<path id="Vector_3" d="M816.19 42.4254C816.477 41.5163 816.62 40.5593 816.62 39.6024C816.62 34.4343 812.409 30.2236 807.241 30.2236C803.653 30.2236 800.543 32.2334 798.964 35.1999C798.389 35.0085 797.719 34.9126 797.098 34.9126C793.652 34.9126 790.877 37.688 790.877 41.1332C790.877 41.5639 790.925 41.9946 791.02 42.3774C787.862 42.8561 785.422 45.6311 785.422 48.9328C785.422 52.6173 788.389 55.5841 792.073 55.5841H815.089C818.773 55.5841 821.74 52.6173 821.74 48.9328C821.692 45.6791 819.3 42.9516 816.19 42.4254Z" fill="white"/>
</g>
<g id="Group_5">
<path id="Vector_4" d="M373.976 249.251C374.261 248.35 374.403 247.403 374.403 246.455C374.403 241.336 370.232 237.166 365.114 237.166C361.56 237.166 358.48 239.157 356.916 242.095C356.347 241.905 355.683 241.81 355.068 241.81C351.655 241.81 348.907 244.559 348.907 247.971C348.907 248.398 348.954 248.824 349.049 249.203C345.921 249.677 343.504 252.426 343.504 255.696C343.504 259.345 346.442 262.283 350.091 262.283H372.887C376.535 262.283 379.474 259.345 379.474 255.696C379.426 252.473 377.057 249.772 373.976 249.251Z" fill="white"/>
</g>
<g id="Group_6">
<path id="Vector_5" d="M228.444 408.206C228.825 406.999 229.015 405.729 229.015 404.458C229.015 397.597 223.425 392.007 216.564 392.007C211.8 392.007 207.67 394.675 205.574 398.614C204.812 398.36 203.922 398.232 203.097 398.232C198.523 398.232 194.838 401.917 194.838 406.491C194.838 407.063 194.902 407.634 195.029 408.143C190.836 408.778 187.596 412.462 187.596 416.846C187.596 421.737 191.535 425.676 196.426 425.676H226.983C231.874 425.676 235.812 421.737 235.812 416.846C235.749 412.526 232.573 408.905 228.444 408.206Z" fill="white"/>
</g>
<g id="Group_7">
<path id="Vector_6" d="M846.063 327.657C846.387 326.631 846.549 325.551 846.549 324.471C846.549 318.64 841.797 313.888 835.965 313.888C831.916 313.888 828.406 316.156 826.624 319.504C825.976 319.288 825.22 319.179 824.518 319.179C820.631 319.179 817.499 322.311 817.499 326.199C817.499 326.685 817.553 327.171 817.661 327.603C814.097 328.143 811.343 331.275 811.343 335C811.343 339.158 814.691 342.506 818.849 342.506H844.821C848.978 342.506 852.326 339.158 852.326 335C852.272 331.329 849.572 328.251 846.063 327.657Z" fill="white"/>
</g>
<g id="Group_8">
<path id="Vector_7" d="M1439.59 167.559C1439.91 166.538 1440.08 165.464 1440.08 164.39C1440.08 158.59 1435.35 153.864 1429.55 153.864C1425.52 153.864 1422.03 156.12 1420.26 159.449C1419.61 159.234 1418.86 159.127 1418.16 159.127C1414.3 159.127 1411.18 162.242 1411.18 166.108C1411.18 166.592 1411.24 167.075 1411.34 167.505C1407.8 168.042 1405.06 171.157 1405.06 174.862C1405.06 178.998 1408.39 182.327 1412.53 182.327H1438.36C1442.49 182.327 1445.82 178.998 1445.82 174.862C1445.77 171.21 1443.08 168.149 1439.59 167.559Z" fill="white"/>
</g>
<g id="Group_9">
<path id="Vector_8" d="M186.55 293.126C186.799 292.341 186.923 291.514 186.923 290.687C186.923 286.221 183.284 282.583 178.819 282.583C175.718 282.583 173.03 284.32 171.666 286.883C171.17 286.718 170.591 286.635 170.053 286.635C167.077 286.635 164.678 289.033 164.678 292.01C164.678 292.382 164.72 292.754 164.802 293.085C162.073 293.498 159.965 295.896 159.965 298.749C159.965 301.933 162.529 304.496 165.712 304.496H185.6C188.783 304.496 191.346 301.933 191.346 298.749C191.305 295.938 189.238 293.581 186.55 293.126Z" fill="white"/>
</g>
<g id="Group_10">
<path id="Vector_9" d="M1090.43 193.21C1090.7 192.335 1090.84 191.413 1090.84 190.491C1090.84 185.513 1086.79 181.457 1081.81 181.457C1078.35 181.457 1075.35 183.393 1073.83 186.25C1073.28 186.066 1072.64 185.974 1072.04 185.974C1068.72 185.974 1066.04 188.647 1066.04 191.966C1066.04 192.38 1066.09 192.795 1066.18 193.164C1063.14 193.625 1060.79 196.298 1060.79 199.478C1060.79 203.027 1063.65 205.885 1067.2 205.885H1089.37C1092.92 205.885 1095.77 203.027 1095.77 199.478C1095.73 196.344 1093.42 193.717 1090.43 193.21Z" fill="white"/>
</g>
<g id="Group_11">
<path id="Vector_10" d="M824.653 100.924C825.012 99.7892 825.191 98.5948 825.191 97.4004C825.191 90.9502 819.935 85.6949 813.485 85.6949C809.007 85.6949 805.125 88.2033 803.154 91.9057C802.437 91.6668 801.601 91.5472 800.825 91.5472C796.525 91.5472 793.061 95.0111 793.061 99.3109C793.061 99.8485 793.121 100.386 793.24 100.864C789.299 101.461 786.253 104.925 786.253 109.046C786.253 113.644 789.956 117.347 794.554 117.347H823.28C827.878 117.347 831.581 113.644 831.581 109.046C831.521 104.985 828.535 101.581 824.653 100.924Z" fill="white"/>
</g>
</g>
</g>
<defs>
<clipPath id="clip0">
<rect width="1440" height="405" fill="white"/>
</clipPath>
</defs>
</svg>
